<svg id="AI-_5" data-name="AI- 5" xmlns="http://www.w3.org/2000/svg" width="173.727" height="173.727" viewBox="0 0 173.727 173.727">
  <path id="Path_4413" data-name="Path 4413" d="M175.936,81.824H96.18A14.356,14.356,0,0,0,81.824,96.18v79.756A14.356,14.356,0,0,0,96.18,190.292h79.756a14.356,14.356,0,0,0,14.356-14.356V96.18A14.356,14.356,0,0,0,175.936,81.824Zm2.393,86.136a10.368,10.368,0,0,1-10.368,10.368h-63.8a10.368,10.368,0,0,1-10.368-10.368v-63.8a10.368,10.368,0,0,1,10.368-10.368h63.8a10.368,10.368,0,0,1,10.368,10.368Zm0,0" transform="translate(-49.194 -49.194)" fill="#fff"/>
  <path id="Path_4414" data-name="Path 4414" d="M193.734,202.14h8.773l-4.387-15.046Zm0,0" transform="translate(-116.477 -112.485)" fill="#fff"/>
  <path id="Path_4415" data-name="Path 4415" d="M193.212,123.824h-63.8a5.582,5.582,0,0,0-5.583,5.583v63.8a5.583,5.583,0,0,0,5.583,5.583h63.8a5.584,5.584,0,0,0,5.583-5.583v-63.8A5.583,5.583,0,0,0,193.212,123.824Zm-28.306,51.27c-.746,0-1.36-.168-1.58-.871l-1.8-6.134H150.694l-1.8,6.134c-.22.7-.833.918-1.623.918-1.273,0-2.9-.813-2.9-1.955a1.325,1.325,0,0,1,.044-.407l8.73-28.43a2.928,2.928,0,0,1,2.939-1.583c1.315,0,2.631.525,2.983,1.578l8.684,28.424a1.237,1.237,0,0,1,.089.4C167.846,174.26,166.223,175.094,164.906,175.094Zm11.158-1.536c0,1.009-1.209,1.536-2.393,1.536-1.14,0-2.393-.527-2.393-1.536V144.52c0-1.051,1.252-1.491,2.393-1.491,1.184,0,2.393.439,2.393,1.491Zm0,0" transform="translate(-74.446 -74.446)" fill="#fff"/>
  <path id="Path_4416" data-name="Path 4416" d="M236.217,373.645a2.392,2.392,0,0,0-2.393,2.393v19.939a2.393,2.393,0,0,0,4.785,0V376.037A2.393,2.393,0,0,0,236.217,373.645Zm0,0" transform="translate(-140.58 -224.643)" fill="#fff"/>
  <path id="Path_4417" data-name="Path 4417" d="M192.217,373.645a2.392,2.392,0,0,0-2.393,2.393v19.939a2.393,2.393,0,0,0,4.785,0V376.037A2.393,2.393,0,0,0,192.217,373.645Zm0,0" transform="translate(-114.126 -224.643)" fill="#fff"/>
  <path id="Path_4418" data-name="Path 4418" d="M149.217,373.645a2.392,2.392,0,0,0-2.393,2.393v19.939a2.393,2.393,0,0,0,4.785,0V376.037A2.393,2.393,0,0,0,149.217,373.645Zm0,0" transform="translate(-88.274 -224.643)" fill="#fff"/>
  <path id="Path_4419" data-name="Path 4419" d="M279.217,373.645a2.392,2.392,0,0,0-2.393,2.393v19.939a2.393,2.393,0,0,0,4.785,0V376.037A2.393,2.393,0,0,0,279.217,373.645Zm0,0" transform="translate(-166.432 -224.643)" fill="#fff"/>
  <path id="Path_4420" data-name="Path 4420" d="M189.824,2.393V22.332a2.393,2.393,0,0,0,4.785,0V2.393a2.393,2.393,0,0,0-4.785,0Zm0,0" transform="translate(-114.126)" fill="#fff"/>
  <path id="Path_4421" data-name="Path 4421" d="M233.824,2.393V22.332a2.393,2.393,0,0,0,4.785,0V2.393a2.393,2.393,0,0,0-4.785,0Zm0,0" transform="translate(-140.58)" fill="#fff"/>
  <path id="Path_4422" data-name="Path 4422" d="M279.217,24.724a2.393,2.393,0,0,0,2.393-2.393V2.393a2.393,2.393,0,0,0-4.785,0V22.332A2.392,2.392,0,0,0,279.217,24.724Zm0,0" transform="translate(-166.432)" fill="#fff"/>
  <path id="Path_4423" data-name="Path 4423" d="M146.824,2.393V22.332a2.393,2.393,0,1,0,4.785,0V2.393a2.393,2.393,0,1,0-4.785,0Zm0,0" transform="translate(-88.274)" fill="#fff"/>
  <path id="Path_4424" data-name="Path 4424" d="M395.976,189.824H376.037a2.393,2.393,0,1,0,0,4.785h19.939a2.393,2.393,0,1,0,0-4.785Zm0,0" transform="translate(-224.643 -114.126)" fill="#fff"/>
  <path id="Path_4425" data-name="Path 4425" d="M395.976,233.824H376.037a2.393,2.393,0,1,0,0,4.785h19.939a2.393,2.393,0,1,0,0-4.785Zm0,0" transform="translate(-224.643 -140.58)" fill="#fff"/>
  <path id="Path_4426" data-name="Path 4426" d="M395.976,276.824H376.037a2.393,2.393,0,1,0,0,4.785h19.939a2.393,2.393,0,1,0,0-4.785Zm0,0" transform="translate(-224.643 -166.432)" fill="#fff"/>
  <path id="Path_4427" data-name="Path 4427" d="M395.976,146.824H376.037a2.393,2.393,0,1,0,0,4.785h19.939a2.393,2.393,0,1,0,0-4.785Zm0,0" transform="translate(-224.643 -88.274)" fill="#fff"/>
  <path id="Path_4428" data-name="Path 4428" d="M22.332,233.824H2.393a2.393,2.393,0,1,0,0,4.785H22.332a2.393,2.393,0,1,0,0-4.785Zm0,0" transform="translate(0 -140.58)" fill="#fff"/>
  <path id="Path_4429" data-name="Path 4429" d="M22.332,189.824H2.393a2.393,2.393,0,0,0,0,4.785H22.332a2.393,2.393,0,0,0,0-4.785Zm0,0" transform="translate(0 -114.126)" fill="#fff"/>
  <path id="Path_4430" data-name="Path 4430" d="M22.332,146.824H2.393a2.393,2.393,0,0,0,0,4.785H22.332a2.393,2.393,0,0,0,0-4.785Zm0,0" transform="translate(0 -88.274)" fill="#fff"/>
  <path id="Path_4431" data-name="Path 4431" d="M22.332,276.824H2.393a2.393,2.393,0,1,0,0,4.785H22.332a2.393,2.393,0,1,0,0-4.785Zm0,0" transform="translate(0 -166.432)" fill="#fff"/>
</svg>
