<svg id="Funnelling_-_6" data-name="Funnelling - 6" xmlns="http://www.w3.org/2000/svg" width="155.125" height="204.176" viewBox="0 0 155.125 204.176">
  <ellipse id="Ellipse_456" data-name="Ellipse 456" cx="18.5" cy="18" rx="18.5" ry="18" transform="translate(5.281)" fill="#fff"/>
  <circle id="Ellipse_457" data-name="Ellipse 457" cx="18" cy="18" r="18" transform="translate(114.281)" fill="#fff"/>
  <ellipse id="Ellipse_458" data-name="Ellipse 458" cx="18.144" cy="18.144" rx="18.144" ry="18.144" transform="translate(59.618)" fill="#fff"/>
  <path id="Path_4432" data-name="Path 4432" d="M145.3,115.761h34.654a18.144,18.144,0,0,0-34.654,0Z" transform="translate(-111.882 -61.926)" fill="#fff"/>
  <path id="Path_4433" data-name="Path 4433" d="M280.8,115.761h34.654a18.144,18.144,0,0,0-34.654,0Z" transform="translate(-193.348 -61.926)" fill="#fff"/>
  <path id="Path_4434" data-name="Path 4434" d="M211,445.3a5.981,5.981,0,0,0,8.639,5.359l24.126-11.963a5.982,5.982,0,0,0,3.324-5.359V411H211Z" transform="translate(-151.382 -247.101)" fill="#fff"/>
  <path id="Path_4435" data-name="Path 4435" d="M210.644,165H67.482a5.982,5.982,0,0,0-5.982,5.982v18.743H216.625V170.982A5.982,5.982,0,0,0,210.644,165Z" transform="translate(-61.5 -99.201)" fill="#fff"/>
  <path id="Path_4436" data-name="Path 4436" d="M139.15,306.449h46.026L224.735,257H99.591Z" transform="translate(-84.401 -154.513)" fill="#fff"/>
</svg>
