<svg id="future_hiring_-_4" data-name="future hiring - 4" xmlns="http://www.w3.org/2000/svg" width="204.176" height="204.172" viewBox="0 0 204.176 204.172">
  <path id="Path_4440" data-name="Path 4440" d="M184.2,95.751a47.625,47.625,0,1,0-47.626-47.626A47.625,47.625,0,0,0,184.2,95.751ZM172.408,43.9l7.938,7.937L195.43,31.72c4.753-6.334,14.316.852,9.571,7.178L185.778,64.528a5.984,5.984,0,0,1-9.015.64L163.95,52.354C158.35,46.754,166.816,38.3,172.408,43.9Zm0,0" transform="translate(-82.111 -0.5)" fill="#fff"/>
  <path id="Path_4441" data-name="Path 4441" d="M74.438,279.025a21.463,21.463,0,1,1-21.462-21.462A21.464,21.464,0,0,1,74.438,279.025Zm0,0" transform="translate(-18.945 -155.051)" fill="#fff"/>
  <path id="Path_4442" data-name="Path 4442" d="M245.1,279.025a21.464,21.464,0,1,1-21.464-21.462A21.464,21.464,0,0,1,245.1,279.025Zm0,0" transform="translate(-121.552 -155.051)" fill="#fff"/>
  <path id="Path_4443" data-name="Path 4443" d="M415.77,279.025a21.463,21.463,0,1,1-21.464-21.462A21.464,21.464,0,0,1,415.77,279.025Zm0,0" transform="translate(-224.161 -155.051)" fill="#fff"/>
  <path id="Path_4444" data-name="Path 4444" d="M169.888,365.21c-18.746.139-33.744,15.663-33.77,34.4v-.375a34.03,34.03,0,0,0-34.287-34.029c-18.746.139-33.744,15.663-33.77,34.4v-.375A34.031,34.031,0,0,0,33.772,365.21C15.009,365.348,0,380.9,0,399.665v18.3a5.981,5.981,0,0,0,5.982,5.982H62.076a5.982,5.982,0,0,0,5.982-5.979,5.983,5.983,0,0,0,5.982,5.979h56.1a5.982,5.982,0,0,0,5.982-5.979,5.982,5.982,0,0,0,5.982,5.979h56.1a5.982,5.982,0,0,0,5.982-5.982V399.238A34.029,34.029,0,0,0,169.888,365.21Zm0,0" transform="translate(0 -219.77)" fill="#fff"/>
</svg>
