<svg id="gamification_-_3" data-name="gamification - 3" xmlns="http://www.w3.org/2000/svg" width="167.487" height="204.176" viewBox="0 0 167.487 204.176">
  <path id="Path_4445" data-name="Path 4445" d="M116.635,72.179a40.785,40.785,0,0,0,12.392-23.927h54.552a5.982,5.982,0,1,1,0,11.963H165.634a17.965,17.965,0,0,0-17.945,17.945v41.872H129.744a35.929,35.929,0,0,0-35.89,35.89v31.335a16.919,16.919,0,0,0,28.88,11.963l7.01-7.01H177.6l7.01,7.01a16.919,16.919,0,0,0,28.88-11.963V155.923a35.929,35.929,0,0,0-35.89-35.89H159.652V78.161a5.986,5.986,0,0,1,5.982-5.982h17.945a17.945,17.945,0,0,0,0-35.89H129.141C126.215,16.023,108.948,0,87.872,0,64.747,0,46,19.145,46,42.271A39.672,39.672,0,0,0,58.973,72.179Zm13.109,101.689a17.945,17.945,0,1,1,17.945-17.945A17.965,17.965,0,0,1,129.744,173.868Zm47.854-35.89a17.945,17.945,0,1,1-17.945,17.945A17.965,17.965,0,0,1,177.6,137.978ZM99.835,36.289a5.982,5.982,0,1,1-5.982,5.982A5.982,5.982,0,0,1,99.835,36.289Zm-23.927,0a5.982,5.982,0,1,1-5.982,5.982A5.982,5.982,0,0,1,75.908,36.289Z" transform="translate(-46)" fill="#fff"/>
  <path id="Path_4446" data-name="Path 4446" d="M141.89,216.982V211H106v5.982a17.945,17.945,0,1,0,35.89,0Z" transform="translate(-82.073 -126.857)" fill="#fff"/>
  <circle id="Ellipse_461" data-name="Ellipse 461" cx="6" cy="6" r="6" transform="translate(125.641 150)" fill="#fff"/>
  <circle id="Ellipse_462" data-name="Ellipse 462" cx="6" cy="6" r="6" transform="translate(77.641 150)" fill="#fff"/>
</svg>
