<svg id="talent_-_1" data-name="talent - 1" xmlns="http://www.w3.org/2000/svg" width="204.176" height="209.736" viewBox="0 0 204.176 209.736">
  <ellipse id="Ellipse_463" data-name="Ellipse 463" cx="18.016" cy="18.015" rx="18.016" ry="18.015" transform="translate(78.559 13.8) rotate(-22.514)" fill="#fff"/>
  <path id="Path_4447" data-name="Path 4447" d="M169.326,160.888h63.032a5.067,5.067,0,0,0,4.916-6.293l-4.707-18.878A20.268,20.268,0,0,0,212.9,120.353h-24.12a20.268,20.268,0,0,0-19.665,15.364L164.409,154.6a5.067,5.067,0,0,0,4.917,6.293Z" transform="translate(-98.754 -66.798)" fill="#fff"/>
  <path id="Path_4448" data-name="Path 4448" d="M366.955,148.762a12.26,12.26,0,0,0-24.52.028v23.9a19.482,19.482,0,0,1,5.635,31.476l-25.785,25.786a5.982,5.982,0,1,1-8.459-8.459l25.786-25.786a7.519,7.519,0,0,0-10.634-10.634l-18.095,18.1a5.974,5.974,0,0,1-5.417,1.631l-6.776-.4a13.373,13.373,0,0,0-10.984,3.829l-9.7,9.7A23.925,23.925,0,0,0,271,234.843v47.428a3.988,3.988,0,0,0,3.988,3.988h42.271a3.988,3.988,0,0,0,3.988-3.988V268.907l39.985-39.985a20.058,20.058,0,0,0,5.875-14.228Z" transform="translate(-162.931 -76.522)" fill="#fff"/>
  <path id="Path_4449" data-name="Path 4449" d="M79.4,208.225A13.371,13.371,0,0,0,68.415,204.4l-6.774.4a5.973,5.973,0,0,1-5.418-1.631l-18.095-18.1a7.519,7.519,0,0,0-10.634,10.634L53.28,221.494a5.981,5.981,0,1,1-8.459,8.459L19.035,204.168a19.481,19.481,0,0,1,5.635-31.476v-23.9a12.26,12.26,0,0,0-24.52-.028L0,214.694a20.056,20.056,0,0,0,5.875,14.228L45.86,268.907v13.363a3.988,3.988,0,0,0,3.988,3.988H92.118a3.988,3.988,0,0,0,3.988-3.988V234.843A23.925,23.925,0,0,0,89.1,217.925Z" transform="translate(0 -76.522)" fill="#fff"/>
</svg>
