<svg id="Tracking_-_2" data-name="Tracking - 2" xmlns="http://www.w3.org/2000/svg" width="204.176" height="204.176" viewBox="0 0 204.176 204.176">
  <circle id="Ellipse_459" data-name="Ellipse 459" cx="18" cy="18" r="18" transform="translate(155.73 108)" fill="#fff"/>
  <path id="Path_4437" data-name="Path 4437" d="M147.618,158.151a23.721,23.721,0,0,0-3.632,4.955c7.812-.305-13.18-.008,53.305-.142A23.845,23.845,0,0,0,176.692,151H164.729A23.808,23.808,0,0,0,147.618,158.151Z" transform="translate(-86.567 -90.785)" fill="#fff"/>
  <path id="Path_4438" data-name="Path 4438" d="M370.344,372.963h53.162A23.845,23.845,0,0,0,402.907,361H390.943A23.845,23.845,0,0,0,370.344,372.963Z" transform="translate(-222.658 -217.04)" fill="#fff"/>
  <circle id="Ellipse_460" data-name="Ellipse 460" cx="18" cy="18" r="18" transform="translate(65.73 24)" fill="#fff"/>
  <path id="Path_4439" data-name="Path 4439" d="M144.358,0H0V36.289H54.839a29.907,29.907,0,0,1,58.606,0h30.913a23.927,23.927,0,0,1,0,47.854H60.216A59.817,59.817,0,0,0,.4,143.96C.4,177,27.18,204.175,60.216,204.175H204.175V167.886H60.216a23.927,23.927,0,0,1,0-47.854c21.683-.016,74.633.043,84.759-.062a29.96,29.96,0,0,1,29.292-23.865A29.539,29.539,0,0,1,188.729,100a59.365,59.365,0,0,0,15.446-39.784C204.175,27.18,177.394,0,144.358,0Z" fill="#fff"/>
</svg>
